<svg width="20" height="31" viewBox="0 0 20 31" fill="none" xmlns="http://www.w3.org/2000/svg">
<path d="M10.6012 17.4391L10.011 17.4416C7.55829 17.4416 5.3222 17.298 3.86451 17.0816L2.95805 16.8921C2.47797 16.7866 1.93134 16.648 1.65229 16.5034C0.63154 15.9744 0 14.9398 0 13.8326V13.7362C0.0238663 13.0144 0.657243 11.498 0.679273 11.498C1.70305 9.05808 4.79286 4.35076 6.99565 2.17666L7.65698 1.54488C7.83622 1.37944 8.04834 1.19357 8.2137 1.07817C8.72407 0.692725 9.35561 0.5 9.98715 0.5C10.6921 0.5 11.3475 0.716361 11.8836 1.12545L12.5841 1.77455L12.7336 1.91998C14.8724 3.89269 18.3697 9.04353 19.4401 11.738L19.596 12.1449C19.7714 12.6344 19.9807 13.3203 20 13.7362C20 14.2653 19.877 14.7707 19.6347 15.2525C19.295 15.8544 18.7589 16.3344 18.1274 16.5998C17.6905 16.7689 16.3778 17.0343 16.354 17.0343C15.0304 17.2777 12.942 17.4188 10.6012 17.4391ZM9.99927 30.5C8.60217 30.5 7.46943 29.3782 7.46943 27.9946L8.01469 21.8292C8.01469 20.7438 8.90325 19.8638 9.99927 19.8638C11.0971 19.8638 11.9838 20.7438 11.9838 21.8292L12.5291 27.9946C12.5291 29.3782 11.3964 30.5 9.99927 30.5Z" fill="white"/>
</svg>
