<svg width="20" height="31" viewBox="0 0 20 31" fill="none" xmlns="http://www.w3.org/2000/svg">
<path d="M10.6012 13.5609L10.011 13.5584C7.55829 13.5584 5.3222 13.702 3.86451 13.9184L2.95805 14.1079C2.47797 14.2134 1.93134 14.352 1.65229 14.4966C0.63154 15.0256 0 16.0602 0 17.1674V17.2638C0.0238663 17.9856 0.657243 19.502 0.679273 19.502C1.70305 21.9419 4.79286 26.6492 6.99565 28.8233L7.65698 29.4551C7.83622 29.6206 8.04834 29.8064 8.2137 29.9218C8.72407 30.3073 9.35561 30.5 9.98715 30.5C10.6921 30.5 11.3475 30.2836 11.8836 29.8746L12.5841 29.2255L12.7336 29.08C14.8724 27.1073 18.3697 21.9565 19.4401 19.262L19.596 18.8551C19.7714 18.3656 19.9807 17.6797 20 17.2638C20 16.7347 19.877 16.2293 19.6347 15.7475C19.295 15.1456 18.7589 14.6656 18.1274 14.4002C17.6905 14.2311 16.3778 13.9657 16.354 13.9657C15.0304 13.7223 12.942 13.5812 10.6012 13.5609ZM9.99927 0.5C8.60217 0.5 7.46943 1.62181 7.46943 3.00542L8.01469 9.1708C8.01469 10.2562 8.90325 11.1362 9.99927 11.1362C11.0971 11.1362 11.9838 10.2562 11.9838 9.1708L12.5291 3.00542C12.5291 1.62181 11.3964 0.5 9.99927 0.5Z" fill="white"/>
</svg>
